<svg xmlns="http://www.w3.org/2000/svg" xmlns:xlink="http://www.w3.org/1999/xlink" viewBox="-50 -50 100 100" style="filter: drop-shadow(black 0px 0px 0.4em);">
	<path d="M-45,-20v-30l45,0l0,100c0,0 -45,-20 -45,-70z" fill="#273ea5" stroke-linecap="round" stroke-width="" stroke="" opacity=""></path>
	<path d="M-22.18618,-23.27264l2.75694,6.65585l6.65585,-2.75694l-2.75694,6.65585l6.65585,2.75694l-6.65585,2.75694l2.75694,6.65585l-6.65585,-2.75694l-2.75694,6.65585l-2.75694,-6.65585l-6.65585,2.75694l2.75694,-6.65585l-6.65585,-2.75694l6.65585,-2.75694l-2.75694,-6.65585l6.65585,2.75694z" fill="#e4ae0c" stroke-linecap="round" stroke-width="" stroke="" opacity=""></path>
	<path d="M45,-50v30c0,50 -45,70 -45,70v-100z" fill="#20801e" stroke-linecap="round" stroke-width="" stroke="" opacity=""></path>
	<path d="M30,-35v-15l15,0l0,15z" fill="#e4ae0c" stroke-linecap="round" stroke-width="" stroke="" opacity=""></path>
	<path d="M30,-5v-15h15c0,5.33786 -0.51287,10.3338 -1.4291,15z" fill="#e4ae0c" stroke-linecap="round" stroke-width="" stroke="" opacity=""></path>
	<path d="M30,25v-15l8.89289,0c-2.46349,5.64416 -5.5003,10.632 -8.78198,15z" fill="#e4ae0c" stroke-linecap="round" stroke-width="" stroke="" opacity=""></path>
	<path d="M30,-35v15l-15,0l0,-15z" fill="#e4ae0c" stroke-linecap="round" stroke-width="" stroke="" opacity=""></path>
	<path d="M30,-5v15h-15l0,-15z" fill="#e4ae0c" stroke-linecap="round" stroke-width="" stroke="" opacity=""></path>
	<path d="M30,25l0,0.14727c-4.646,6.15395 -9.77375,11.07051 -14.45582,14.85273h-0.54418v-15z" fill="#e4ae0c" stroke-linecap="round" stroke-width="" stroke="" opacity=""></path>
	<path d="M15,-35l-15,0v-15l15,0z" fill="#e4ae0c" stroke-linecap="round" stroke-width="" stroke="" opacity=""></path>
	<path d="M15,-20l0,15l-15,0l0,-15z" fill="#e4ae0c" stroke-linecap="round" stroke-width="" stroke="" opacity=""></path>
	<path d="M15,10v15h-15l0,-15z" fill="#e4ae0c" stroke-linecap="round" stroke-width="" stroke="" opacity=""></path>
	<path d="M15,40l0,0.43613c-8.26168,6.56906 -15,9.56387 -15,9.56387l0,-10z" fill="#e4ae0c" stroke-linecap="round" stroke-width="" stroke="" opacity=""></path>
</svg>
